<svg xmlns="http://www.w3.org/2000/svg" width="63.986" height="148.376" viewBox="0 0 63.986 148.376">
  <g id="day17-walkie-talkie" transform="translate(-113.82 -59.784)">
    <rect id="XMLID_12_" width="6.436" height="7.607" stroke-width="6" transform="translate(161.875 99.062)" stroke="#7ba884" stroke-linecap="round" stroke-linejoin="round" stroke-miterlimit="10" fill="#7ba884"/>
    <path id="XMLID_11_" d="M555.794,318.669h-5.88a1.75,1.75,0,0,1-1.814-1.726l.175-5.734a1.732,1.732,0,0,1,1.814-1.609h5.559a1.772,1.772,0,0,1,1.814,1.609l.175,5.734A1.813,1.813,0,0,1,555.794,318.669Z" transform="translate(-387.747 -219.023)" fill="#7ba884" stroke="#7ba884" stroke-linecap="round" stroke-linejoin="round" stroke-miterlimit="10" stroke-width="6"/>
    <path id="XMLID_10_" d="M512.594,318.669h-5.88a1.75,1.75,0,0,1-1.814-1.726l.176-5.734a1.732,1.732,0,0,1,1.814-1.609h5.559a1.772,1.772,0,0,1,1.814,1.609l.176,5.734A1.794,1.794,0,0,1,512.594,318.669Z" transform="translate(-357.185 -219.023)" fill="#7ba884" stroke="#7ba884" stroke-linecap="round" stroke-linejoin="round" stroke-miterlimit="10" stroke-width="6"/>
    <path id="XMLID_9_" d="M452.462,252.048H443.1l.936-34.815a2.717,2.717,0,0,1,2.721-2.633H448.8a2.717,2.717,0,0,1,2.721,2.633Z" transform="translate(-313.466 -151.816)" fill="#7ba884" stroke="#7ba884" stroke-linecap="round" stroke-linejoin="round" stroke-miterlimit="10" stroke-width="6"/>
    <rect id="XMLID_8_" width="11.702" height="7.607" stroke-width="6" transform="translate(128.464 99.062)" stroke="#7ba884" stroke-linecap="round" stroke-linejoin="round" stroke-miterlimit="10" fill="#7ba884"/>
    <rect id="XMLID_7_" width="6.436" height="7.607" stroke-width="6" transform="translate(149.382 99.062)" stroke="#7ba884" stroke-linecap="round" stroke-linejoin="round" stroke-miterlimit="10" fill="#7ba884"/>
    <path id="XMLID_6_" d="M422.763,373.655a3.307,3.307,0,0,1-.263-1.317V361.514a6.5,6.5,0,0,1,5.061-6.319,93.15,93.15,0,0,1,40.2,0,6.455,6.455,0,0,1,5.061,6.319v10.825a3.306,3.306,0,0,1-.263,1.317Z" transform="translate(-298.892 -249.726)" fill="#7ba884" stroke="#7ba884" stroke-linecap="round" stroke-linejoin="round" stroke-miterlimit="10" stroke-width="6"/>
    <path id="XMLID_3_" d="M421.5,431.07v69.162a5.713,5.713,0,0,0,4.447,5.822,80.082,80.082,0,0,0,9.947,1.609,2.682,2.682,0,0,0,2.428-1.17,10.59,10.59,0,0,1,17.788-.088,2.7,2.7,0,0,0,2.458,1.17,72.32,72.32,0,0,0,8.777-1.492,5.765,5.765,0,0,0,4.505-5.851V431.07A93.71,93.71,0,0,0,421.5,431.07Z" transform="translate(-298.185 -302.518)" fill="#7ba884" stroke="#7ba884" stroke-linecap="round" stroke-linejoin="round" stroke-miterlimit="10" stroke-width="6"/>
    <path id="XMLID_1_" d="M470.232,400.286V387.969a5.279,5.279,0,0,0-4.418-5.208,140.949,140.949,0,0,0-43.8,0,5.256,5.256,0,0,0-4.418,5.208v12.317a4.7,4.7,0,0,0,1.082,3.013,12.262,12.262,0,0,1,3.013,8.045v23.4a12.262,12.262,0,0,1-3.013,8.045,4.488,4.488,0,0,0-1.082,3.013v12.317a5.279,5.279,0,0,0,4.418,5.208,140.949,140.949,0,0,0,43.8,0,5.256,5.256,0,0,0,4.418-5.208V445.809a4.7,4.7,0,0,0-1.082-3.013,12.262,12.262,0,0,1-3.013-8.045v-23.4a12.262,12.262,0,0,1,3.013-8.045A4.64,4.64,0,0,0,470.232,400.286Z" transform="translate(-295.426 -269.569)" fill="#7ba884" stroke="#7ba884" stroke-linecap="round" stroke-linejoin="round" stroke-miterlimit="10" stroke-width="6"/>
    <path id="XMLID_97_" d="M401.114,484.06h-.234a1.573,1.573,0,0,1-1.58-1.58h0a1.573,1.573,0,0,1,1.58-1.58h.234a1.573,1.573,0,0,1,1.58,1.58h0A1.573,1.573,0,0,1,401.114,484.06Z" transform="translate(-282.48 -340.207)" fill="#404041" stroke="#404041" stroke-linecap="round" stroke-linejoin="round" stroke-miterlimit="10" stroke-width="6"/>
    <path id="XMLID_113_" d="M401.114,504.86h-.234a1.573,1.573,0,0,1-1.58-1.58h0a1.573,1.573,0,0,1,1.58-1.58h.234a1.573,1.573,0,0,1,1.58,1.58h0A1.573,1.573,0,0,1,401.114,504.86Z" transform="translate(-282.48 -354.922)" fill="#404041" stroke="#404041" stroke-linecap="round" stroke-linejoin="round" stroke-miterlimit="10" stroke-width="6"/>
    <rect id="XMLID_115_" width="6.436" height="7.607" transform="translate(157.486 99.062)" fill="#635142"/>
    <rect id="XMLID_112_" width="6.436" height="7.607" stroke-width="6" transform="translate(157.486 99.062)" stroke="#404041" stroke-linecap="round" stroke-linejoin="round" stroke-miterlimit="10" fill="none"/>
    <path id="XMLID_111_" d="M540.794,318.669h-5.88a1.75,1.75,0,0,1-1.814-1.726l.176-5.734a1.731,1.731,0,0,1,1.814-1.609h5.559a1.772,1.772,0,0,1,1.814,1.609l.176,5.734A1.813,1.813,0,0,1,540.794,318.669Z" transform="translate(-377.135 -219.023)" fill="#705d4c"/>
    <path id="XMLID_131_" d="M536.539,320.1l-.439-.029.234-6.875.439.029a1.057,1.057,0,0,1,.995,1.053l-.176,4.827A1.036,1.036,0,0,1,536.539,320.1Z" transform="translate(-379.257 -221.57)" fill="#897160"/>
    <path id="XMLID_146_" d="M551.559,311.309a1.732,1.732,0,0,0-1.814-1.609H546a1.772,1.772,0,0,1,1.814,1.609l.176,5.734a1.75,1.75,0,0,1-1.814,1.726h3.745a1.75,1.75,0,0,0,1.814-1.726Z" transform="translate(-386.261 -219.094)" fill="#635142" opacity="0.81"/>
    <path id="XMLID_103_" d="M540.794,318.669h-5.88a1.75,1.75,0,0,1-1.814-1.726l.176-5.734a1.731,1.731,0,0,1,1.814-1.609h5.559a1.772,1.772,0,0,1,1.814,1.609l.176,5.734A1.813,1.813,0,0,1,540.794,318.669Z" transform="translate(-377.135 -219.023)" fill="none" stroke="#404041" stroke-linecap="round" stroke-linejoin="round" stroke-miterlimit="10" stroke-width="6"/>
    <path id="XMLID_150_" d="M497.594,318.669h-5.88a1.75,1.75,0,0,1-1.814-1.726l.176-5.734a1.732,1.732,0,0,1,1.814-1.609h5.559a1.772,1.772,0,0,1,1.814,1.609l.176,5.734A1.794,1.794,0,0,1,497.594,318.669Z" transform="translate(-346.574 -219.023)" fill="#705d4c"/>
    <path id="XMLID_149_" d="M493.339,320.1l-.439-.029.234-6.875.439.029a1.057,1.057,0,0,1,.995,1.053l-.176,4.827A1.036,1.036,0,0,1,493.339,320.1Z" transform="translate(-348.696 -221.57)" fill="#897160"/>
    <path id="XMLID_132_" d="M508.359,311.309a1.731,1.731,0,0,0-1.814-1.609H502.8a1.772,1.772,0,0,1,1.814,1.609l.176,5.734a1.75,1.75,0,0,1-1.814,1.726h3.745a1.75,1.75,0,0,0,1.814-1.726Z" transform="translate(-355.7 -219.094)" fill="#635142" opacity="0.81"/>
    <path id="XMLID_101_" d="M497.594,318.669h-5.88a1.75,1.75,0,0,1-1.814-1.726l.176-5.734a1.732,1.732,0,0,1,1.814-1.609h5.559a1.772,1.772,0,0,1,1.814,1.609l.176,5.734A1.794,1.794,0,0,1,497.594,318.669Z" transform="translate(-346.574 -219.023)" fill="none" stroke="#404041" stroke-linecap="round" stroke-linejoin="round" stroke-miterlimit="10" stroke-width="6"/>
    <path id="XMLID_42_" d="M437.462,252.048H428.1l.936-34.815a2.717,2.717,0,0,1,2.721-2.633H433.8a2.717,2.717,0,0,1,2.721,2.633Z" transform="translate(-302.854 -151.816)" fill="#705d4c"/>
    <path id="XMLID_152_" d="M429.195,219.8a2.882,2.882,0,0,0-.059.5l-.936,35.429h2.428s.7-25.424.936-33.5a2.373,2.373,0,0,0-2.37-2.428Z" transform="translate(-302.925 -155.495)" fill="#897160"/>
    <path id="XMLID_154_" d="M435.334,215.331a2.717,2.717,0,0,1,2.721,2.633l1.024,34.083h3.686l-1.053-34.815a2.737,2.737,0,0,0-2.721-2.633h-2.048a2.743,2.743,0,0,0-1.843.731Z" transform="translate(-307.806 -151.816)" fill="#635142" opacity="0.81"/>
    <path id="XMLID_47_" d="M437.462,252.048H428.1l.936-34.815a2.717,2.717,0,0,1,2.721-2.633H433.8a2.717,2.717,0,0,1,2.721,2.633Z" transform="translate(-302.854 -151.816)" fill="none" stroke="#404041" stroke-linecap="round" stroke-linejoin="round" stroke-miterlimit="10" stroke-width="6"/>
    <rect id="XMLID_95_" width="11.702" height="7.607" transform="translate(124.076 99.062)" fill="#635142"/>
    <path id="XMLID_117_" d="M425.482,344.966h0a1.08,1.08,0,0,1-1.082-1.082v-3.1a1.08,1.08,0,0,1,1.082-1.082h0a1.08,1.08,0,0,1,1.082,1.082v3.1A1.045,1.045,0,0,1,425.482,344.966Z" transform="translate(-300.237 -240.317)" fill="#897160" opacity="0.75"/>
    <rect id="XMLID_170_" width="4.681" height="7.607" transform="translate(131.097 99.062)" fill="#404041"/>
    <rect id="XMLID_94_" width="11.702" height="7.607" stroke-width="6" transform="translate(124.076 99.062)" stroke="#404041" stroke-linecap="round" stroke-linejoin="round" stroke-miterlimit="10" fill="none"/>
    <rect id="XMLID_100_" width="6.436" height="7.607" transform="translate(144.994 99.062)" fill="#635142"/>
    <rect id="XMLID_14_" width="3.218" height="7.607" transform="translate(148.212 99.062)" fill="#404041"/>
    <rect id="XMLID_99_" width="6.436" height="7.607" stroke-width="6" transform="translate(144.994 99.062)" stroke="#404041" stroke-linecap="round" stroke-linejoin="round" stroke-miterlimit="10" fill="none"/>
    <path id="XMLID_24_" d="M407.763,373.655a3.307,3.307,0,0,1-.263-1.317V361.514a6.5,6.5,0,0,1,5.061-6.319,93.15,93.15,0,0,1,40.2,0,6.455,6.455,0,0,1,5.061,6.319v10.825a3.307,3.307,0,0,1-.263,1.317Z" transform="translate(-288.281 -249.726)" fill="#705d4c"/>
    <path id="XMLID_141_" d="M412.357,361.5a6.5,6.5,0,0,1,5.061-6.319,95.032,95.032,0,0,1,17.671-2.165,92.834,92.834,0,0,0-22.527,2.165A6.455,6.455,0,0,0,407.5,361.5v10.825a3.307,3.307,0,0,0,.263,1.317h4.857a3.307,3.307,0,0,1-.263-1.317Z" transform="translate(-288.281 -249.715)" fill="#897160"/>
    <path id="XMLID_109_" d="M408.063,394.155a3.306,3.306,0,0,1-.263-1.317V382.014a6.5,6.5,0,0,1,5.061-6.319,93.15,93.15,0,0,1,40.2,0,6.455,6.455,0,0,1,5.061,6.319v10.825a3.306,3.306,0,0,1-.263,1.317Z" transform="translate(-288.493 -264.228)" fill="#635142"/>
    <path id="XMLID_140_" d="M507.232,355.284a94.5,94.5,0,0,0-22.732-2.165,93.489,93.489,0,0,1,17.5,2.165,6.455,6.455,0,0,1,5.061,6.319v10.825a3.307,3.307,0,0,1-.263,1.317h5.237a3.308,3.308,0,0,0,.263-1.317V361.6A6.455,6.455,0,0,0,507.232,355.284Z" transform="translate(-342.754 -249.786)" fill="#635142"/>
    <path id="XMLID_27_" d="M407.763,373.655a3.307,3.307,0,0,1-.263-1.317V361.514a6.5,6.5,0,0,1,5.061-6.319,93.15,93.15,0,0,1,40.2,0,6.455,6.455,0,0,1,5.061,6.319v10.825a3.307,3.307,0,0,1-.263,1.317Z" transform="translate(-288.281 -249.726)" fill="none" stroke="#404041" stroke-linecap="round" stroke-linejoin="round" stroke-miterlimit="10" stroke-width="6"/>
    <path id="XMLID_23_" d="M406.5,431.07v69.162a5.713,5.713,0,0,0,4.447,5.822,80.084,80.084,0,0,0,9.947,1.609,2.682,2.682,0,0,0,2.428-1.17,10.59,10.59,0,0,1,17.788-.088,2.7,2.7,0,0,0,2.458,1.17,72.32,72.32,0,0,0,8.777-1.492,5.765,5.765,0,0,0,4.505-5.851V431.07A93.71,93.71,0,0,0,406.5,431.07Z" transform="translate(-287.573 -302.518)" fill="#705d4c"/>
    <path id="XMLID_155_" d="M436.34,691.656a42.2,42.2,0,0,1-5.5-.79,8.229,8.229,0,0,1-.907-.293,1.934,1.934,0,0,0-2.633,1.814h0c2.721.556,5.529.965,8.338,1.258.936.088,1.229.293,1.755-.5a.226.226,0,0,1,.029-.088A1.239,1.239,0,0,0,436.34,691.656Z" transform="translate(-302.288 -488.442)" fill="#635142"/>
    <path id="XMLID_157_" d="M409.9,509.161c1.638.673,2.194-1.317,2.019-2.165a20.138,20.138,0,0,1-.176-3.92V433.914q1.141-.351,2.282-.614c-2.545.5-5.032,1.082-7.431,1.785v69.162c0,2.926-.117,3.979,2.575,4.593A4.978,4.978,0,0,0,409.9,509.161Z" transform="translate(-287.642 -306.533)" fill="#897160"/>
    <path id="XMLID_139_" d="M404.6,472.478v25.307a6.725,6.725,0,0,0,2.955,1.141,141.327,141.327,0,0,0,44.411,0,7.882,7.882,0,0,0,2.955-1.141V472.478a9.985,9.985,0,0,1-.878-4.154v-23.4a10.184,10.184,0,0,1,.878-4.154v-9.947a93.032,93.032,0,0,0-50.321,0v9.947a9.986,9.986,0,0,1,.878,4.154v23.4A10.184,10.184,0,0,1,404.6,472.478Z" transform="translate(-286.229 -302.324)" fill="#635142"/>
    <g id="XMLID_135_" transform="translate(154 127.235)">
      <g id="XMLID_182_">
        <path id="XMLID_183_" d="M535.079,434.9c.527.146,1.082.293,1.609.439V504.5a5.788,5.788,0,0,1-4.505,5.851,22.067,22.067,0,0,1-4.593.673,1.232,1.232,0,0,0-1.2,1.317c0,.029,0,.059.029.059.527.79.995.7,1.931.614a72.309,72.309,0,0,0,8.777-1.492,5.765,5.765,0,0,0,4.505-5.851V436.509C539.5,435.895,537.3,435.368,535.079,434.9Z" transform="translate(-526.386 -434.9)" fill="#635142"/>
      </g>
    </g>
    <path id="XMLID_22_" d="M406.5,431.07v69.162a5.713,5.713,0,0,0,4.447,5.822,80.084,80.084,0,0,0,9.947,1.609,2.682,2.682,0,0,0,2.428-1.17,10.59,10.59,0,0,1,17.788-.088,2.7,2.7,0,0,0,2.458,1.17,72.32,72.32,0,0,0,8.777-1.492,5.765,5.765,0,0,0,4.505-5.851V431.07A93.71,93.71,0,0,0,406.5,431.07Z" transform="translate(-287.573 -302.518)" fill="none" stroke="#404041" stroke-linecap="round" stroke-linejoin="round" stroke-miterlimit="10" stroke-width="6"/>
    <path id="XMLID_130_" d="M455.232,400.286V387.969a5.279,5.279,0,0,0-4.418-5.208,140.949,140.949,0,0,0-43.8,0,5.256,5.256,0,0,0-4.418,5.208v12.317a4.7,4.7,0,0,0,1.082,3.013,12.262,12.262,0,0,1,3.013,8.045v23.4a12.262,12.262,0,0,1-3.013,8.045,4.488,4.488,0,0,0-1.082,3.013v12.317a5.279,5.279,0,0,0,4.418,5.208,140.949,140.949,0,0,0,43.8,0,5.256,5.256,0,0,0,4.418-5.208V445.809a4.7,4.7,0,0,0-1.082-3.013,12.262,12.262,0,0,1-3.013-8.045v-23.4a12.262,12.262,0,0,1,3.013-8.045A4.64,4.64,0,0,0,455.232,400.286Z" transform="translate(-284.814 -269.569)" fill="#fec556"/>
    <g id="XMLID_21_" transform="translate(122.379 111.511)">
      <path id="XMLID_133_" d="M504.87,382.192A140.417,140.417,0,0,0,486,381.168a140.641,140.641,0,0,1,18.87,1.521Z" transform="translate(-466.194 -381.155)" fill="#f8a342"/>
      <path id="XMLID_145_" d="M465.256,412a4.488,4.488,0,0,0,1.082-3.013V396.673a5.427,5.427,0,0,0-.556-2.37,1.713,1.713,0,0,0-3.247.761v13.867a4.7,4.7,0,0,1-1.082,3.013,12.262,12.262,0,0,0-3.013,8.045v23.4a12.262,12.262,0,0,0,3.013,8.045,4.488,4.488,0,0,1,1.082,3.013V466.8a3.208,3.208,0,0,1-2.809,3.13,158.606,158.606,0,0,1-39.057.2,2.1,2.1,0,0,0-2.37,2.048,162.878,162.878,0,0,0,23.522,1.4c-1.229.059-2.458.088-3.686.117a140.793,140.793,0,0,0,23.785-1.7,5.282,5.282,0,0,0,4.447-5.208V454.483a4.7,4.7,0,0,0-1.082-3.013,12.262,12.262,0,0,1-3.013-8.045v-23.4A12.068,12.068,0,0,1,465.256,412Z" transform="translate(-418.3 -389.784)" fill="#f8a342"/>
    </g>
    <path id="XMLID_143_" d="M429.516,420.825a169.305,169.305,0,0,0-4.447-39.525,138.461,138.461,0,0,0-18.051,1.668,5.256,5.256,0,0,0-4.418,5.208v12.317a4.7,4.7,0,0,0,1.082,3.013,12.262,12.262,0,0,1,3.013,8.045v23.4A12.262,12.262,0,0,1,403.682,443a4.489,4.489,0,0,0-1.082,3.013v12.317a5.279,5.279,0,0,0,4.418,5.208,140.593,140.593,0,0,0,16.793,1.609C427.409,452.627,429.516,437.326,429.516,420.825Z" transform="translate(-284.814 -269.746)" fill="#fdd08a" opacity="0.39"/>
    <path id="XMLID_138_" d="M405.982,400.316V387.97a3.426,3.426,0,0,1,2.984-3.335,3.258,3.258,0,0,1,.5-.059c12.492-1.726,27.179-1.375,39.788.234a2.732,2.732,0,0,0,2.838-1.609h0c-6.963-.995-17.407-2.165-24.429-2.106h-1.434c-.585.029-1.141.029-1.726.059-.848.029-1.726.059-2.575.117a1.8,1.8,0,0,0-.41.029c-.819.029-1.609.088-2.4.146-.176,0-.38.029-.556.029l-2.253.176c-.234.029-.468.029-.7.059-.7.059-1.434.146-2.136.234l-.79.088c-.7.088-1.4.176-2.136.263-.263.029-.5.059-.761.088-.907.117-1.843.263-2.75.41h-.088a5.244,5.244,0,0,0-4.388,4.622v.088c0,.146-.029.322-.029.468v12.317a2.516,2.516,0,0,0,.029.468v.029a4.621,4.621,0,0,0,1.053,2.487,12.262,12.262,0,0,1,3.013,8.045v23.99a12.041,12.041,0,0,1-.614,3.277c-.088.263-.2.556-.293.819a10.548,10.548,0,0,1-.761,1.521c-.117.234-.263.439-.41.673-.293.41-.585.819-.907,1.2a4.764,4.764,0,0,0-.673,1.024c-.088.2-.146.38-.234.585a5.682,5.682,0,0,0-.2.965c0,.146-.029.263-.029.41V458.1a2.679,2.679,0,0,0,.029.5v.029c.029.146.029.322.059.468h0a5.279,5.279,0,0,0,4.184,4.154,11.77,11.77,0,0,0-.585-3.628,5.327,5.327,0,0,1-.234-1.521V445.78a4.7,4.7,0,0,1,1.082-3.013,12.262,12.262,0,0,0,3.013-8.045v-23.4a12.262,12.262,0,0,0-3.013-8.045A4.5,4.5,0,0,1,405.982,400.316Z" transform="translate(-284.744 -269.599)" fill="#fdd08a" opacity="0.88"/>
    <path id="XMLID_4_" d="M455.232,400.286V387.969a5.279,5.279,0,0,0-4.418-5.208,140.949,140.949,0,0,0-43.8,0,5.256,5.256,0,0,0-4.418,5.208v12.317a4.7,4.7,0,0,0,1.082,3.013,12.262,12.262,0,0,1,3.013,8.045v23.4a12.262,12.262,0,0,1-3.013,8.045,4.488,4.488,0,0,0-1.082,3.013v12.317a5.279,5.279,0,0,0,4.418,5.208,140.949,140.949,0,0,0,43.8,0,5.256,5.256,0,0,0,4.418-5.208V445.809a4.7,4.7,0,0,0-1.082-3.013,12.262,12.262,0,0,1-3.013-8.045v-23.4a12.262,12.262,0,0,1,3.013-8.045A4.64,4.64,0,0,0,455.232,400.286Z" transform="translate(-284.814 -269.569)" fill="none" stroke="#404041" stroke-linecap="round" stroke-linejoin="round" stroke-miterlimit="10" stroke-width="6"/>
    <path id="XMLID_43_" d="M468.431,460.516h-22.82A3.521,3.521,0,0,1,442.1,457V437.111a3.521,3.521,0,0,1,3.511-3.511h22.82a3.521,3.521,0,0,1,3.511,3.511V457A3.5,3.5,0,0,1,468.431,460.516Z" transform="translate(-312.758 -306.745)" fill="#f48b34" stroke="#f48b34" stroke-linecap="round" stroke-linejoin="round" stroke-miterlimit="10" stroke-width="6" opacity="0.59"/>
    <path id="XMLID_15_" d="M468.431,457.516h-22.82A3.521,3.521,0,0,1,442.1,454V434.111a3.521,3.521,0,0,1,3.511-3.511h22.82a3.521,3.521,0,0,1,3.511,3.511V454A3.5,3.5,0,0,1,468.431,457.516Z" transform="translate(-312.758 -304.623)" fill="#705d4c"/>
    <path id="XMLID_159_" d="M444.351,454V434.111a3.521,3.521,0,0,1,3.511-3.511h-1.551a3.521,3.521,0,0,0-3.511,3.511V454a3.521,3.521,0,0,0,3.511,3.511h1.551A3.521,3.521,0,0,1,444.351,454Z" transform="translate(-313.254 -304.623)" fill="#635142"/>
    <path id="XMLID_156_" d="M527.855,430.6H526.1a3.521,3.521,0,0,1,3.511,3.511V454a3.521,3.521,0,0,1-3.511,3.511h1.755A3.521,3.521,0,0,0,531.366,454V434.111A3.5,3.5,0,0,0,527.855,430.6Z" transform="translate(-372.183 -304.623)" fill="#635142"/>
    <path id="XMLID_13_" d="M468.431,457.516h-22.82A3.521,3.521,0,0,1,442.1,454V434.111a3.521,3.521,0,0,1,3.511-3.511h22.82a3.521,3.521,0,0,1,3.511,3.511V454A3.5,3.5,0,0,1,468.431,457.516Z" transform="translate(-312.758 -304.623)" fill="none" stroke="#404041" stroke-linecap="round" stroke-linejoin="round" stroke-miterlimit="10" stroke-width="6"/>
    <circle id="XMLID_17_" cx="1.17" cy="1.17" r="1.17" transform="translate(133.438 138.938)" fill="#404041"/>
    <circle id="XMLID_25_" cx="1.17" cy="1.17" r="1.17" transform="translate(136.802 138.938)" fill="#404041"/>
    <circle id="XMLID_28_" cx="1.17" cy="1.17" r="1.17" transform="translate(140.167 138.938)" fill="#404041"/>
    <circle id="XMLID_29_" cx="1.17" cy="1.17" r="1.17" transform="translate(143.531 138.938)" fill="#404041"/>
    <circle id="XMLID_30_" cx="1.17" cy="1.17" r="1.17" transform="translate(146.895 138.938)" fill="#404041"/>
    <circle id="XMLID_31_" cx="1.17" cy="1.17" r="1.17" transform="translate(150.26 138.938)" fill="#404041"/>
    <circle id="XMLID_33_" cx="1.17" cy="1.17" r="1.17" transform="translate(153.654 138.938)" fill="#404041"/>
    <circle id="XMLID_64_" cx="1.17" cy="1.17" r="1.17" transform="translate(135.105 135.603)" fill="#404041"/>
    <circle id="XMLID_62_" cx="1.17" cy="1.17" r="1.17" transform="translate(138.499 135.603)" fill="#404041"/>
    <circle id="XMLID_61_" cx="1.17" cy="1.17" r="1.17" transform="translate(141.863 135.603)" fill="#404041"/>
    <circle id="XMLID_60_" cx="1.17" cy="1.17" r="1.17" transform="translate(145.228 135.603)" fill="#404041"/>
    <circle id="XMLID_57_" cx="1.17" cy="1.17" r="1.17" transform="translate(148.592 135.603)" fill="#404041"/>
    <circle id="XMLID_54_" cx="1.17" cy="1.17" r="1.17" transform="translate(151.957 135.603)" fill="#404041"/>
    <circle id="XMLID_78_" cx="1.17" cy="1.17" r="1.17" transform="translate(136.802 132.267)" fill="#404041"/>
    <circle id="XMLID_77_" cx="1.17" cy="1.17" r="1.17" transform="translate(140.167 132.267)" fill="#404041"/>
    <circle id="XMLID_76_" cx="1.17" cy="1.17" r="1.17" transform="translate(143.531 132.267)" fill="#404041"/>
    <circle id="XMLID_75_" cx="1.17" cy="1.17" r="1.17" transform="translate(146.895 132.267)" fill="#404041"/>
    <circle id="XMLID_39_" cx="1.17" cy="1.17" r="1.17" transform="translate(150.26 132.267)" fill="#404041"/>
    <circle id="XMLID_85_" cx="1.17" cy="1.17" r="1.17" transform="translate(135.105 142.273)" fill="#404041"/>
    <circle id="XMLID_84_" cx="1.17" cy="1.17" r="1.17" transform="translate(138.499 142.273)" fill="#404041"/>
    <circle id="XMLID_83_" cx="1.17" cy="1.17" r="1.17" transform="translate(141.863 142.273)" fill="#404041"/>
    <circle id="XMLID_82_" cx="1.17" cy="1.17" r="1.17" transform="translate(145.228 142.273)" fill="#404041"/>
    <circle id="XMLID_81_" cx="1.17" cy="1.17" r="1.17" transform="translate(148.592 142.273)" fill="#404041"/>
    <circle id="XMLID_80_" cx="1.17" cy="1.17" r="1.17" transform="translate(151.957 142.273)" fill="#404041"/>
    <circle id="XMLID_91_" cx="1.17" cy="1.17" r="1.17" transform="translate(136.802 145.608)" fill="#404041"/>
    <circle id="XMLID_69_" cx="1.17" cy="1.17" r="1.17" transform="translate(133.438 145.608)" fill="#404041" opacity="0.35"/>
    <circle id="XMLID_79_" cx="1.17" cy="1.17" r="1.17" transform="translate(133.438 132.267)" fill="#404041" opacity="0.35"/>
    <circle id="XMLID_86_" cx="1.17" cy="1.17" r="1.17" transform="translate(138.499 129.429)" fill="#404041" opacity="0.35"/>
    <circle id="XMLID_92_" cx="1.17" cy="1.17" r="1.17" transform="translate(141.863 129.429)" fill="#404041" opacity="0.35"/>
    <circle id="XMLID_93_" cx="1.17" cy="1.17" r="1.17" transform="translate(145.228 129.429)" fill="#404041" opacity="0.35"/>
    <circle id="XMLID_102_" cx="1.17" cy="1.17" r="1.17" transform="translate(148.592 129.429)" fill="#404041" opacity="0.35"/>
    <circle id="XMLID_90_" cx="1.17" cy="1.17" r="1.17" transform="translate(140.167 145.608)" fill="#404041"/>
    <circle id="XMLID_89_" cx="1.17" cy="1.17" r="1.17" transform="translate(143.531 145.608)" fill="#404041"/>
    <circle id="XMLID_88_" cx="1.17" cy="1.17" r="1.17" transform="translate(146.895 145.433)" fill="#404041"/>
    <circle id="XMLID_87_" cx="1.17" cy="1.17" r="1.17" transform="translate(150.26 145.608)" fill="#404041"/>
    <circle id="XMLID_40_" cx="1.17" cy="1.17" r="1.17" transform="translate(153.654 145.608)" fill="#404041" opacity="0.35"/>
    <circle id="XMLID_70_" cx="1.17" cy="1.17" r="1.17" transform="translate(153.654 132.267)" fill="#404041" opacity="0.35"/>
    <path id="XMLID_123_" d="M488.007,587.762h-5.851a1.761,1.761,0,0,1-1.755-1.755v-5.851a1.761,1.761,0,0,1,1.755-1.755h5.851a1.761,1.761,0,0,1,1.755,1.755v5.851A1.761,1.761,0,0,1,488.007,587.762Z" transform="translate(-339.853 -409.182)" fill="#f48b34" stroke="#f48b34" stroke-linecap="round" stroke-linejoin="round" stroke-miterlimit="10" stroke-width="4" opacity="0.59"/>
    <path id="XMLID_35_" d="M485.207,587.762h-5.851a1.761,1.761,0,0,1-1.755-1.755v-5.851a1.761,1.761,0,0,1,1.755-1.755h5.851a1.761,1.761,0,0,1,1.755,1.755v5.851A1.761,1.761,0,0,1,485.207,587.762Z" transform="translate(-337.872 -409.182)" fill="#dd3748"/>
    <path id="XMLID_104_" d="M483.6,586.448v-1.463a.587.587,0,0,1,.585-.585H487.7" transform="translate(-342.117 -413.427)" fill="none" stroke="#404041" stroke-linecap="round" stroke-linejoin="round" stroke-miterlimit="10" stroke-width="3" opacity="0.3"/>
    <path id="XMLID_34_" d="M485.207,587.762h-5.851a1.761,1.761,0,0,1-1.755-1.755v-5.851a1.761,1.761,0,0,1,1.755-1.755h5.851a1.761,1.761,0,0,1,1.755,1.755v5.851A1.761,1.761,0,0,1,485.207,587.762Z" transform="translate(-337.872 -409.182)" fill="none" stroke="#404041" stroke-linecap="round" stroke-linejoin="round" stroke-miterlimit="10" stroke-width="4"/>
    <path id="XMLID_124_" d="M533.207,587.762h-5.851a1.761,1.761,0,0,1-1.755-1.755v-5.851a1.761,1.761,0,0,1,1.755-1.755h5.851a1.761,1.761,0,0,1,1.755,1.755v5.851A1.76,1.76,0,0,1,533.207,587.762Z" transform="translate(-371.829 -409.182)" fill="#f48b34" stroke="#f48b34" stroke-linecap="round" stroke-linejoin="round" stroke-miterlimit="10" stroke-width="4" opacity="0.59"/>
    <g id="XMLID_105_" transform="translate(143.151 172.641)">
      <path id="XMLID_121_" d="M491.406,590.3v.819a1.274,1.274,0,0,0-.322-.263.667.667,0,0,0-.322-.088.733.733,0,0,0-.527.234.613.613,0,0,0-.117.176.423.423,0,0,0-.059.2c0,.059-.029.146-.029.234a.728.728,0,0,0,.2.556.705.705,0,0,0,.527.2.59.59,0,0,0,.322-.088,2.129,2.129,0,0,0,.322-.263v.819a1.213,1.213,0,0,1-.351.117,1.425,1.425,0,0,1-.351.029,1.724,1.724,0,0,1-.41-.059.667.667,0,0,1-.351-.176,1.6,1.6,0,0,1-.468-.527,1.47,1.47,0,0,1-.176-.7,1.31,1.31,0,0,1,.117-.585.588.588,0,0,1,.117-.234c.059-.088.117-.146.176-.234a1.279,1.279,0,0,1,.439-.293,1.7,1.7,0,0,1,.556-.088,1.425,1.425,0,0,1,.351.029A1.964,1.964,0,0,0,491.406,590.3Z" transform="translate(-489.3 -590.1)" fill="#fec556"/>
    </g>
    <path id="XMLID_108_" d="M531.407,587.762h-5.851a1.761,1.761,0,0,1-1.755-1.755v-5.851a1.761,1.761,0,0,1,1.755-1.755h5.851a1.761,1.761,0,0,1,1.755,1.755v5.851A1.761,1.761,0,0,1,531.407,587.762Z" transform="translate(-370.556 -409.182)" fill="#514c4c"/>
    <path id="XMLID_107_" d="M528.8,586.448v-1.463a.587.587,0,0,1,.585-.585H532.9" transform="translate(-374.093 -413.427)" fill="none" stroke="#404041" stroke-linecap="round" stroke-linejoin="round" stroke-miterlimit="10" stroke-width="3"/>
    <path id="XMLID_106_" d="M530.407,587.762h-5.851a1.761,1.761,0,0,1-1.755-1.755v-5.851a1.761,1.761,0,0,1,1.755-1.755h5.851a1.761,1.761,0,0,1,1.755,1.755v5.851A1.761,1.761,0,0,1,530.407,587.762Z" transform="translate(-369.849 -409.182)" fill="none" stroke="#404041" stroke-linecap="round" stroke-linejoin="round" stroke-miterlimit="10" stroke-width="4"/>
    <path id="XMLID_127_" d="M534.627,592.577l-1.258-1.258a.484.484,0,0,1,.351-.819h2.487a.484.484,0,0,1,.351.819l-1.258,1.258A.445.445,0,0,1,534.627,592.577Z" transform="translate(-377.229 -417.742)" fill="#fec556"/>
    <path id="XMLID_118_" d="M443.807,587.762h-5.851a1.761,1.761,0,0,1-1.755-1.755v-5.851a1.761,1.761,0,0,1,1.755-1.755h5.851a1.761,1.761,0,0,1,1.755,1.755v5.851A1.742,1.742,0,0,1,443.807,587.762Z" transform="translate(-308.584 -409.182)" fill="#f48b34" stroke="#f48b34" stroke-linecap="round" stroke-linejoin="round" stroke-miterlimit="10" stroke-width="4" opacity="0.59"/>
    <path id="XMLID_129_" d="M440.107,587.762h-5.851a1.761,1.761,0,0,1-1.755-1.755v-5.851a1.761,1.761,0,0,1,1.755-1.755h5.851a1.761,1.761,0,0,1,1.755,1.755v5.851A1.761,1.761,0,0,1,440.107,587.762Z" transform="translate(-305.967 -409.182)" fill="#514c4c"/>
    <path id="XMLID_128_" d="M438.5,586.448v-1.463a.587.587,0,0,1,.585-.585H442.6" transform="translate(-310.211 -413.427)" fill="none" stroke="#404041" stroke-linecap="round" stroke-linejoin="round" stroke-miterlimit="10" stroke-width="3"/>
    <path id="XMLID_126_" d="M441.107,587.762h-5.851a1.761,1.761,0,0,1-1.755-1.755v-5.851a1.761,1.761,0,0,1,1.755-1.755h5.851a1.761,1.761,0,0,1,1.755,1.755v5.851A1.761,1.761,0,0,1,441.107,587.762Z" transform="translate(-306.674 -409.182)" fill="none" stroke="#404041" stroke-linecap="round" stroke-linejoin="round" stroke-miterlimit="10" stroke-width="4"/>
    <path id="XMLID_125_" d="M444.327,590.729l-1.258,1.258a.484.484,0,0,0,.351.819h2.487a.484.484,0,0,0,.351-.819L445,590.729A.445.445,0,0,0,444.327,590.729Z" transform="translate(-313.347 -417.795)" fill="#fec556"/>
    <path id="XMLID_151_" d="M499.159,405.787h-4.915a.649.649,0,0,1-.644-.644h0a.649.649,0,0,1,.644-.644h4.915a.649.649,0,0,1,.644.644h0A.649.649,0,0,1,499.159,405.787Z" transform="translate(-349.191 -286.159)" fill="#f48b34" opacity="0.36"/>
    <path id="XMLID_163_" d="M484.868,411.887H474.044a.649.649,0,0,1-.644-.644h0a.649.649,0,0,1,.644-.644h10.825a.649.649,0,0,1,.644.644h0A.649.649,0,0,1,484.868,411.887Z" transform="translate(-334.901 -290.474)" fill="#f48b34" opacity="0.36"/>
  </g>
</svg>
