<svg xmlns="http://www.w3.org/2000/svg" width="266.002" height="191.436" viewBox="0 0 266.002 191.436">
  <g id="day77-pocket-knief" transform="translate(-636.4 -750)">
    <g id="XMLID_3_" transform="translate(639.4 753)" opacity="0.15">
      <path id="XMLID_10_" d="M623.1,237V402.545c0,10.978-4.493,19.891-10.073,19.891H525.273c-5.544,0-10.073-8.913-10.073-19.891V272.508" transform="translate(-381.938 -237)" fill="none" stroke="#474747" stroke-linecap="round" stroke-linejoin="round" stroke-miterlimit="10" stroke-width="6"/>
      <line id="XMLID_9_" x2="239.857" stroke-width="6" transform="translate(20.145 185.4)" stroke="#474747" stroke-linecap="round" stroke-linejoin="round" stroke-miterlimit="10" fill="none"/>
      <line id="XMLID_18_" x2="107.899" stroke-width="6" transform="translate(133.262 78.624)" stroke="#474747" stroke-linecap="round" stroke-linejoin="round" stroke-miterlimit="10" fill="none"/>
      <line id="XMLID_22_" x2="107.899" stroke-width="6" transform="translate(133.262 155.762)" stroke="#474747" stroke-linecap="round" stroke-linejoin="round" stroke-miterlimit="10" fill="none"/>
      <path id="XMLID_17_" d="M760.2,539.893h-7.355a3.959,3.959,0,0,1-3.949-3.949V479.349a3.959,3.959,0,0,1,3.949-3.949H760.2a3.959,3.959,0,0,1,3.949,3.949v56.595A3.959,3.959,0,0,1,760.2,539.893Z" transform="translate(-530.964 -389.023)" fill="none" stroke="#474747" stroke-linecap="round" stroke-linejoin="round" stroke-miterlimit="10" stroke-width="6"/>
      <path id="XMLID_25_" d="M701.1,539.893h-7.355a3.959,3.959,0,0,1-3.949-3.949V479.349a3.959,3.959,0,0,1,3.949-3.949H701.1a3.959,3.959,0,0,1,3.949,3.949v56.595A3.935,3.935,0,0,1,701.1,539.893Z" transform="translate(-493.277 -389.023)" fill="none" stroke="#474747" stroke-linecap="round" stroke-linejoin="round" stroke-miterlimit="10" stroke-width="6"/>
      <path id="XMLID_60_" d="M760.2,326.893h-7.355a3.959,3.959,0,0,1-3.949-3.949V266.349a3.959,3.959,0,0,1,3.949-3.949H760.2a3.959,3.959,0,0,1,3.949,3.949v56.595A3.959,3.959,0,0,1,760.2,326.893Z" transform="translate(-530.964 -253.197)" fill="none" stroke="#474747" stroke-linecap="round" stroke-linejoin="round" stroke-miterlimit="10" stroke-width="6"/>
      <path id="XMLID_58_" d="M620.493,402.149V409.5a3.959,3.959,0,0,1-3.949,3.949H559.949A3.959,3.959,0,0,1,556,409.5v-7.355a3.959,3.959,0,0,1,3.949-3.949h56.595A3.959,3.959,0,0,1,620.493,402.149Z" transform="translate(-407.955 -339.794)" fill="none" stroke="#474747" stroke-linecap="round" stroke-linejoin="round" stroke-miterlimit="10" stroke-width="6"/>
      <path id="XMLID_61_" d="M626.679,355.349v4.819a3.959,3.959,0,0,1-3.949,3.949h-53.08a3.959,3.959,0,0,1-3.949-3.949v-4.819a3.959,3.959,0,0,1,3.949-3.949h53.08A3.959,3.959,0,0,1,626.679,355.349Z" transform="translate(-414.141 -309.95)" fill="none" stroke="#474747" stroke-linecap="round" stroke-linejoin="round" stroke-miterlimit="10" stroke-width="6"/>
      <path id="XMLID_34_" d="M601.222,560.388l-5-2.1a2.734,2.734,0,0,1-1.486-3.551l18.3-43.913a2.734,2.734,0,0,1,3.551-1.486l5,2.1a2.734,2.734,0,0,1,1.486,3.551l-18.3,43.913A2.7,2.7,0,0,1,601.222,560.388Z" transform="translate(-432.526 -410.532)" fill="none" stroke="#474747" stroke-linecap="round" stroke-linejoin="round" stroke-miterlimit="10" stroke-width="6"/>
      <path id="XMLID_57_" d="M147.4,460.7h28.732v14.022H147.4" transform="translate(-147.4 -379.649)" fill="none" stroke="#474747" stroke-linecap="round" stroke-linejoin="round" stroke-miterlimit="10" stroke-width="6"/>
      <line id="XMLID_59_" x1="28.768" stroke-width="6" transform="translate(28.732 95.073)" stroke="#474747" stroke-linecap="round" stroke-linejoin="round" stroke-miterlimit="10" fill="none"/>
      <line id="XMLID_38_" x2="11.015" stroke-width="6" transform="translate(28.732 81.051)" stroke="#474747" stroke-linecap="round" stroke-linejoin="round" stroke-miterlimit="10" fill="none"/>
      <rect id="XMLID_42_" width="28.732" height="14.022" stroke-width="6" transform="translate(14.348 95.073)" stroke="#474747" stroke-linecap="round" stroke-linejoin="round" stroke-miterlimit="10" fill="none"/>
      <path id="XMLID_52_" d="M159.7,538.3h24.276v13.986h-9.312" transform="translate(-155.243 -429.133)" fill="none" stroke="#474747" stroke-linecap="round" stroke-linejoin="round" stroke-miterlimit="10" stroke-width="6"/>
      <rect id="XMLID_54_" width="28.732" height="14.022" stroke-width="6" transform="translate(28.732 109.167)" stroke="#474747" stroke-linecap="round" stroke-linejoin="round" stroke-miterlimit="10" fill="none"/>
      <rect id="XMLID_23_" width="44.602" height="36.16" stroke-width="6" transform="translate(59.493 28.551)" stroke="#474747" stroke-linecap="round" stroke-linejoin="round" stroke-miterlimit="10" fill="none"/>
      <path id="XMLID_62_" d="M328.6,371.648l8.188-11.848,8.442,10.471" transform="translate(-262.947 -315.307)" fill="none" stroke="#474747" stroke-linecap="round" stroke-linejoin="round" stroke-miterlimit="10" stroke-width="6"/>
      <path id="XMLID_64_" d="M365.9,358.587,377.313,347.5l8.116,16.3" transform="translate(-286.733 -307.463)" fill="none" stroke="#474747" stroke-linecap="round" stroke-linejoin="round" stroke-miterlimit="10" stroke-width="6"/>
      <path id="XMLID_63_" d="M357.7,362.735a4.285,4.285,0,0,1,7.754-.833" transform="translate(-281.504 -315.307)" fill="none" stroke="#474747" stroke-linecap="round" stroke-linejoin="round" stroke-miterlimit="10" stroke-width="6"/>
    </g>
    <g id="Group_48" data-name="Group 48" transform="translate(684.944 798.29)">
      <path id="XMLID_16_" d="M460.221,564.628l1.594-3.261,3.478.978,1.594-3.261,3.515.978L472,556.8l3.515.978,1.594-3.261,3.515.978,1.594-3.261,3.514.978,1.594-3.261,3.515.978,1.594-3.261,3.515.978,1.594-3.261,3.515.978,1.594-3.261,3.515.978,1.594-3.261,3.515.978,1.594-3.261-2.1-2.826a9.19,9.19,0,0,0-11.16-2.935l-46.3,20.87Z" transform="translate(-388.01 -470.388)" fill="#d2dde1"/>
      <path id="XMLID_5_" d="M460.221,564.628l1.594-3.261,3.478.978,1.594-3.261,3.515.978L472,556.8l3.515.978,1.594-3.261,3.515.978,1.594-3.261,3.514.978,1.594-3.261,3.515.978,1.594-3.261,3.515.978,1.594-3.261,3.515.978,1.594-3.261,3.515.978,1.594-3.261,3.515.978,1.594-3.261-2.1-2.826a9.19,9.19,0,0,0-11.16-2.935l-46.3,20.87Z" transform="translate(-388.01 -470.388)" fill="none" stroke="#474747" stroke-linecap="round" stroke-linejoin="round" stroke-miterlimit="10" stroke-width="6"/>
      <path id="XMLID_11_" d="M322.666,468.849,295.6,474.283,273.1,362h0a43.941,43.941,0,0,1,30.942,31.3Z" transform="translate(-273.1 -362)" fill="#baced3"/>
      <path id="XMLID_13_" d="M400.564,476.1c-4.058,3.841-7.573,1.486-7.5-1.739.145-5.181,2.862-10.616,5.761-14.747,1.7-2.464,6.087-6.884,8.515-4.964l5.942-26.16L403.789,416.1l-1.739,2.971a195.215,195.215,0,0,0-11.087,22.21,180.227,180.227,0,0,0-8.08,23.66L373.1,501.463l17.1,5.507s5.652-6.051,7.319-9.819a128.074,128.074,0,0,0,6.775-19.674Z" transform="translate(-336.868 -396.498)" fill="#d2dde1"/>
      <path id="XMLID_7_" d="M400.564,476.1c-4.058,3.841-7.573,1.486-7.5-1.739.145-5.181,2.862-10.616,5.761-14.747,1.7-2.464,5.833-5.906,8.515-4.964l5.942-26.16L403.789,416.1l-1.739,2.971a195.215,195.215,0,0,0-11.087,22.21,180.227,180.227,0,0,0-8.08,23.66L373.1,501.463l17.1,5.507s5.652-6.051,7.319-9.819a128.074,128.074,0,0,0,6.775-19.674Z" transform="translate(-336.868 -396.498)" fill="none" stroke="#474747" stroke-linecap="round" stroke-linejoin="round" stroke-miterlimit="10" stroke-width="6"/>
      <path id="XMLID_12_" d="M294.4,370l23.8,107.573,18.007-3.623-18.623-75.58A43.861,43.861,0,0,0,294.4,370Z" transform="translate(-286.683 -367.101)" fill="#e7eff1"/>
      <path id="XMLID_4_" d="M322.666,468.849,295.6,474.283,273.1,362h0a43.941,43.941,0,0,1,30.942,31.3Z" transform="translate(-273.1 -362)" fill="none" stroke="#474747" stroke-linecap="round" stroke-linejoin="round" stroke-miterlimit="10" stroke-width="6"/>
      <path id="XMLID_15_" d="M422.907,511.313l5.181-.181a1.61,1.61,0,0,0,1.63-1.92l-.725-5.145,5.181-.181a1.61,1.61,0,0,0,1.63-1.92l-.725-5.145,5.181-.181a1.61,1.61,0,0,0,1.63-1.92l-.725-5.145,5.181-.181a1.61,1.61,0,0,0,1.63-1.92l-.725-5.145,5.181-.181a1.61,1.61,0,0,0,1.63-1.92l-.725-5.145,5.652-.544a1.677,1.677,0,0,0,1.341-2.5L455.48,459.9l-1.3,9.71-5,.181a1.753,1.753,0,0,0-1.775,2.1l.688,4.964-5,.181a1.753,1.753,0,0,0-1.775,2.1L442,484.1l-5,.181a1.753,1.753,0,0,0-1.775,2.1l.688,4.964-5,.181a1.753,1.753,0,0,0-1.775,2.1l.688,4.964-5,.181a1.753,1.753,0,0,0-1.775,2.1l.688,4.964-7.065.254-6.775,8.08,8.478,7.1Z" transform="translate(-360.334 -424.429)" fill="#bcc6c9"/>
      <path id="XMLID_6_" d="M422.907,511.313l5.181-.181a1.61,1.61,0,0,0,1.63-1.92l-.725-5.145,5.181-.181a1.61,1.61,0,0,0,1.63-1.92l-.725-5.145,5.181-.181a1.61,1.61,0,0,0,1.63-1.92l-.725-5.145,5.181-.181a1.61,1.61,0,0,0,1.63-1.92l-.725-5.145,5.181-.181a1.61,1.61,0,0,0,1.63-1.92l-.725-5.145,5.652-.544a1.677,1.677,0,0,0,1.341-2.5L455.48,459.9l-1.3,9.71-5,.181a1.753,1.753,0,0,0-1.775,2.1l.688,4.964-5,.181a1.753,1.753,0,0,0-1.775,2.1L442,484.1l-5,.181a1.753,1.753,0,0,0-1.775,2.1l.688,4.964-5,.181a1.753,1.753,0,0,0-1.775,2.1l.688,4.964-5,.181a1.753,1.753,0,0,0-1.775,2.1l.688,4.964-7.065.254-6.775,8.08,8.478,7.1Z" transform="translate(-360.334 -424.429)" fill="none" stroke="#474747" stroke-linecap="round" stroke-linejoin="round" stroke-miterlimit="10" stroke-width="6"/>
      <path id="XMLID_8_" d="M446.466,659.425h-94.2A25.344,25.344,0,0,1,326.9,634.063h0A25.344,25.344,0,0,1,352.263,608.7h94.2a25.344,25.344,0,0,1,25.363,25.363h0A25.344,25.344,0,0,1,446.466,659.425Z" transform="translate(-307.407 -519.315)" fill="#9acf8d"/>
      <path id="XMLID_47_" d="M446.466,693.164h-94.2A25.37,25.37,0,0,1,327.081,670.7a25.411,25.411,0,0,0-.181,2.9h0a25.344,25.344,0,0,0,25.363,25.362h94.2A25.344,25.344,0,0,0,471.829,673.6h0a25.4,25.4,0,0,0-.181-2.9A25.317,25.317,0,0,1,446.466,693.164Z" transform="translate(-307.407 -558.851)" fill="#85b578"/>
      <path id="XMLID_46_" d="M446.466,608.7h-94.2A25.344,25.344,0,0,0,326.9,634.063h0a22.369,22.369,0,0,0,.145,2.717,25.4,25.4,0,0,1,25.218-22.645h94.2a25.4,25.4,0,0,1,25.218,22.645,22.761,22.761,0,0,0,.145-2.717h0A25.367,25.367,0,0,0,446.466,608.7Z" transform="translate(-307.407 -519.315)" fill="#bfe8b3"/>
      <path id="XMLID_1_" d="M446.466,659.425h-94.2A25.344,25.344,0,0,1,326.9,634.063h0A25.344,25.344,0,0,1,352.263,608.7h94.2a25.344,25.344,0,0,1,25.363,25.363h0A25.344,25.344,0,0,1,446.466,659.425Z" transform="translate(-307.407 -519.315)" fill="none" stroke="#474747" stroke-linecap="round" stroke-linejoin="round" stroke-miterlimit="10" stroke-width="6"/>
      <line id="XMLID_14_" y1="3.08" x2="11.16" stroke-width="3" transform="translate(29.964 83.769)" stroke="#474747" stroke-linecap="round" stroke-linejoin="round" stroke-miterlimit="10" fill="none"/>
      <circle id="XMLID_21_" cx="9.131" cy="9.131" r="9.131" transform="translate(37.283 105.617)" fill="#d2dde1"/>
      <path id="XMLID_36_" d="M366.9,676a15.248,15.248,0,0,1-4.855-22.5" transform="translate(-327.877 -547.883)" fill="none" stroke="#474747" stroke-linecap="round" stroke-linejoin="round" stroke-miterlimit="10" stroke-width="6" opacity="0.2"/>
      <circle id="XMLID_19_" cx="9.131" cy="9.131" r="9.131" stroke-width="6" transform="translate(37.283 105.617)" stroke="#474747" stroke-linecap="round" stroke-linejoin="round" stroke-miterlimit="10" fill="none"/>
      <path id="XMLID_32_" d="M423.4,488.8s-5.544,14.022-7.1,21.739" transform="translate(-364.416 -442.858)" fill="none" stroke="#474747" stroke-linecap="round" stroke-linejoin="round" stroke-miterlimit="10" stroke-width="3"/>
      <line id="XMLID_27_" y2="11.631" stroke-width="6" transform="translate(46.413 108.95)" stroke="#474747" stroke-linecap="round" stroke-linejoin="round" stroke-miterlimit="10" fill="none"/>
      <line id="XMLID_24_" x1="11.631" stroke-width="6" transform="translate(40.58 114.747)" stroke="#474747" stroke-linecap="round" stroke-linejoin="round" stroke-miterlimit="10" fill="none"/>
      <line id="XMLID_30_" x2="3.659" y2="16.558" stroke-width="3" transform="translate(21.486 65.037)" stroke="#474747" stroke-linecap="round" stroke-linejoin="round" stroke-miterlimit="10" fill="none"/>
      <line id="XMLID_20_" x2="10.29" y2="46.522" stroke-width="3" transform="translate(9.819 12.283)" stroke="#474747" stroke-linecap="round" stroke-linejoin="round" stroke-miterlimit="10" fill="none"/>
    </g>
  </g>
</svg>
