<svg id="Capa_1" enable-background="new 0 0 512 512" height="512" viewBox="0 0 512 512" width="512" xmlns="http://www.w3.org/2000/svg"><g><g id="Social_Distancing_6_"><g><path d="m256 361c-24.814 0-45-20.186-45-45s20.186-45 45-45 45 20.186 45 45-20.186 45-45 45z" fill="#ffd4c4"/></g><g><path d="m331 512h-150v-76c0-41.353 33.633-75 75-75s75 33.647 75 75z" fill="#a5e887"/></g><g><path d="m45 90c-24.814 0-45-20.186-45-45s20.186-45 45-45 45 20.186 45 45-20.186 45-45 45z" fill="#ffd4c4"/></g><g><path d="m346 54.789-21.211 21.211 15 15h-167.578l15-15-21.211-21.211-51.211 51.211 51.211 51.211 21.211-21.211-15-15h167.578l-15 15 21.211 21.211 51.211-51.211z" fill="#0b799d"/><path d="m512 341-51-51.211-51.211 51.211 21.211 21.211 15-15v98.789h-38.789l15-15-21.211-21.211-51.211 51.211 51.211 51 21.211-21-15-15h68.789v-128.789l15 15z" fill="#07485e"/><path d="m89.789 431 15 15h-38.789v-98.789l15 15 21.211-21.211-51.211-51.211-51 51.211 21 21.211 15-15v128.789h68.789l-15 15 21.211 21 51.211-51-51.211-51.211z" fill="#0b799d"/></g><g><path d="m90 240h-90v-105c0-24.814 20.186-45 45-45s45 20.186 45 45z" fill="#5ecef4"/></g></g><path d="m331 512v-76c0-41.353-33.633-75-75-75v151z" fill="#00cc76"/><path d="m301 316c0-24.814-20.186-45-45-45v90c24.814 0 45-20.186 45-45z" fill="#ffbea4"/><path d="m324.789 76 15 15h-83.789v30h83.789l-15 15 21.211 21.211 51.211-51.211-51.211-51.211z" fill="#07485e"/><path d="m90 240v-105c0-24.814-20.186-45-45-45v150z" fill="#4895ff"/><path d="m90 45c0-24.814-20.186-45-45-45v90c24.814 0 45-20.186 45-45z" fill="#ffbea4"/><g><path d="m467 90c-24.814 0-45-20.186-45-45s20.186-45 45-45 45 20.186 45 45-20.186 45-45 45z" fill="#ffd4c4"/></g><g><path d="m512 240h-90v-105c0-24.814 20.186-45 45-45s45 20.186 45 45z" fill="#ffb655"/></g><path d="m512 240v-105c0-24.814-20.186-45-45-45v150z" fill="#ff7c48"/><path d="m512 45c0-24.814-20.186-45-45-45v90c24.814 0 45-20.186 45-45z" fill="#ffbea4"/></g></svg>